<?xml version="1.0" encoding="utf-8"?>
<!-- Generator: Adobe Illustrator 21.0.2, SVG Export Plug-In . SVG Version: 6.00 Build 0)  -->
<svg version="1.1" id="Layer_1" xmlns="http://www.w3.org/2000/svg" xmlns:xlink="http://www.w3.org/1999/xlink" x="0px" y="0px"
	 viewBox="0 0 24 24" style="enable-background:new 0 0 24 24;" xml:space="preserve">
<path d="M15.4,14.4c0.4-0.9,0.8-2,2.2-3.2c1.2-1.1,1.5-2.6,1.7-3c0.2-0.5-0.3-0.8-0.8-0.3c-0.3,0.2-1.4,0.2-2.8-1.1
	c-0.2-0.1-0.2-0.4-0.1-0.6c0.3-0.4,0.8-1,1.3-1.4c0.6-0.5,1-0.9,1.9-0.8c0.8,0.1,1.5,0.8,2.1,1.3c0.9,0.8,1.2,2,1.1,3.8
	c-0.1,1.3-0.2,3.8-1.5,7c-0.8,2.2-3.3,3.9-3.7,3.9s-1-0.3-1.7-0.3c-0.7,0.1-1.7,0.3-3.4,0.3c-4.9,0-6.5-5.3-6.5-5.3S2,13.5,2,10.5
	c0-2,1.1-4.1,3.8-4.1c3.8,0,5.1,2.6,4.3,4.4C14.5,10.2,15.2,13.5,15.4,14.4z"/>
</svg>
